<?xml version="1.0" standalone="no"?>
<!DOCTYPE svg PUBLIC "-//W3C//DTD SVG 20010904//EN"
 "http://www.w3.org/TR/2001/REC-SVG-20010904/DTD/svg10.dtd">
<svg version="1.0" xmlns="http://www.w3.org/2000/svg"
 width="512.000000pt" height="512.000000pt" viewBox="0 0 512.000000 512.000000"
 preserveAspectRatio="xMidYMid meet">
<metadata>
Created by potrace 1.11, written by Peter Selinger 2001-2013
</metadata>
<g transform="translate(0.000000,512.000000) scale(0.100000,-0.100000)"
fill="#000000" stroke="none">
<path d="M2340 5109 c-585 -50 -1134 -302 -1559 -714 -617 -599 -892 -1456
-736 -2298 97 -528 348 -996 736 -1372 906 -880 2305 -967 3319 -207 769 577
1150 1556 975 2505 -194 1049 -1023 1873 -2070 2055 -224 39 -448 50 -665 31z
m502 -405 c774 -100 1441 -621 1732 -1354 162 -409 191 -894 80 -1330 -194
-758 -796 -1360 -1554 -1554 -349 -89 -731 -89 -1080 0 -849 217 -1492 943
-1604 1812 -20 158 -20 406 0 564 100 774 621 1441 1354 1732 141 55 347 109
495 129 151 20 424 21 577 1z"/>
<path d="M3315 3816 c-665 -167 -748 -192 -965 -290 -213 -96 -530 -279 -530
-307 0 -6 48 -140 106 -298 127 -342 144 -391 138 -391 -3 0 -75 68 -161 151
-253 245 -404 364 -565 444 -49 25 -103 45 -118 45 -22 0 -89 -49 -291 -212
-307 -248 -306 -228 -11 -208 161 11 185 11 198 -2 13 -13 228 -376 428 -723
97 -167 305 -355 440 -397 85 -26 165 -21 253 14 34 14 195 96 359 182 164 87
311 160 328 163 41 6 378 -105 551 -182 72 -32 240 -111 375 -176 135 -66 253
-119 263 -119 14 0 46 56 133 238 64 130 116 241 117 247 1 5 -45 15 -103 22
-432 50 -911 126 -1190 188 -91 20 -166 38 -168 39 -1 2 30 74 69 161 39 87
67 161 62 165 -4 4 -120 19 -258 34 -234 25 -265 30 -254 40 2 2 131 24 285
49 155 26 293 52 308 59 18 7 67 70 140 178 62 92 174 249 248 351 74 101 138
190 143 198 15 25 -77 6 -446 -93 -472 -127 -521 -136 -712 -143 -193 -7 -213
2 -95 45 309 111 560 178 1021 271 165 34 305 64 312 69 12 6 200 244 253 320
21 29 22 32 5 31 -10 0 -310 -74 -668 -163z"/>
</g>
</svg>
